<svg xmlns="http://www.w3.org/2000/svg" viewBox="0 0 56 56" style="enable-background:new 0 0 56 56" xml:space="preserve"><path style="fill:#fff" d="M38 28h16v2H38z"/><circle style="fill:#fff" cx="28" cy="29.708" r="1"/><path style="fill:#fff" d="M38 52h16v2H38zm0-4h16v2H38zm0-16h16v2H38zm0 12h16v2H38zm0-4h16v2H38zm0-4h16v2H38z"/><path style="fill:#66cedb" d="M36 30.708V26H20v8h16v-3.292zm-8 2c-1.654 0-3-1.346-3-3s1.346-3 3-3 3 1.346 3 3-1.346 3-3 3z"/><path style="fill:#fff" d="M20 48h16v2H20zM2 52h16v2H2z"/><circle style="fill:#fff" cx="10" cy="41.708" r="1"/><path style="fill:#66cedb" d="M18 42.708V38H2v8h16v-3.292zm-8 2c-1.654 0-3-1.346-3-3s1.346-3 3-3 3 1.346 3 3-1.346 3-3 3z"/><path style="fill:#fff" d="M2 48h16v2H2zm18-4h16v2H20zm0-4h16v2H20zm16-4H20v2h16zM20 52h16v2H20zm34-28H38v2h16z"/><circle style="fill:#fff" cx="46" cy="17.708" r="1"/><path style="fill:#66cedb" d="M54 14H38v8h16v-8zm-8 6.708c-1.654 0-3-1.346-3-3s1.346-3 3-3 3 1.346 3 3-1.346 3-3 3z"/><path d="M55 12H37c-.553 0-1 .155-1 .708V24H19c-.553 0-1 .155-1 .708V36H1c-.553 0-1 .155-1 .708v18C0 55.26.447 56 1 56h54c.553 0 1-.74 1-1.292v-42c0-.553-.447-.708-1-.708zm-17 2h16v8H38v-8zM2 48h16v2H2v-2zm18-4h16v2H20v-2zm0-4h16v2H20v-2zm16-2H20v-2h16v2zM20 48h16v2H20v-2zm18 0h16v2H38v-2zm0-4h16v2H38v-2zm0-4h16v2H38v-2zm0-4h16v2H38v-2zm0-4h16v2H38v-2zm0-4h16v2H38v-2zm0-3.292V24h16v2H38v-1.292zM20 26h16v8H20v-8zM2 38h16v8H2v-8zm0 14h16v2H2v-2zm18 0h16v2H20v-2zm18 2v-2h16v2H38z"/><path d="M10 38.708c-1.654 0-3 1.346-3 3s1.346 3 3 3 3-1.346 3-3-1.346-3-3-3zm0 4a1.001 1.001 0 0 1 0-2 1.001 1.001 0 0 1 0 2zm18-16c-1.654 0-3 1.346-3 3s1.346 3 3 3 3-1.346 3-3-1.346-3-3-3zm0 4a1.001 1.001 0 0 1 0-2 1.001 1.001 0 0 1 0 2zm18-16c-1.654 0-3 1.346-3 3s1.346 3 3 3 3-1.346 3-3c0-1.655-1.346-3-3-3zm0 4a1.001 1.001 0 0 1 0-2 1.001 1.001 0 0 1 0 2zm-27-6.586 5.293 5.293a.999.999 0 0 0 1.414 0L40 3.122V6h2V.707C42 .155 41.553 0 41 0h-5v2h2.586L25 15.44l-5.293-5.366c-.391-.391-1.023-.427-1.414-.037l-18 17.982 1.414 1.405L19 12.122z"/></svg>