<svg xmlns="http://www.w3.org/2000/svg" viewBox="0 0 490 490" style="enable-background:new 0 0 490 490" xml:space="preserve"><path style="fill:#fff" d="m345 190-10 70h-50v175h-90V270h-50v-80h60v-70s0-70 70-70h60v70h-40s-10 0-10 10v60h60z"/><path style="fill:#3d5a98" d="M480 30v430c0 10.996-9.004 20-20 20H30c-10.996 0-20-9.004-20-20V30c0-11.001 9.004-20 20-20h430c10.996 0 20 8.999 20 20zM335 260l10-70h-60v-60c0-10 10-10 10-10h40V50h-60c-70 0-70 70-70 70v70h-60v80h50v165h90V260h50z"/><path style="fill:#231f20" d="M460 0H30C13.458 0 0 13.458 0 30v430c0 16.542 13.458 30 30 30h430c16.542 0 30-13.458 30-30V30c0-16.542-13.458-30-30-30zm10 460c0 5.514-4.486 10-10 10H30c-5.514 0-10-4.486-10-10V30c0-5.514 4.486-10 10-10h430c5.514 0 10 4.486 10 10v430z"/><path style="fill:#231f20" d="M345 180h-50v-49.965a2.9 2.9 0 0 1 .219-.035H335c5.523 0 10-4.477 10-10V50c0-5.522-4.477-10-10-10h-60c-41.268 0-60.95 22.039-70.194 40.528C195.111 99.916 195 119.189 195 120v60h-50c-5.523 0-10 4.477-10 10v80c0 5.523 4.477 10 10 10h40v155c0 5.523 4.477 10 10 10h90c5.523 0 10-4.477 10-10V270h40a9.998 9.998 0 0 0 9.899-8.586l10-70A9.997 9.997 0 0 0 345 180zm-18.673 70H285c-5.523 0-10 4.477-10 10v165h-70V270c0-5.522-4.477-10-10-10h-40v-60h50c5.523 0 10-4.477 10-10v-69.969c.001-.158.189-15.92 7.977-31.119C232.81 69.728 250.313 60 275 60h50v50h-30c-9.695 0-20 7.009-20 20v60c0 5.523 4.477 10 10 10h48.47l-7.143 50z"/></svg>