<svg xmlns="http://www.w3.org/2000/svg" viewBox="0 0 512 512" style="enable-background:new 0 0 512 512" xml:space="preserve"><path style="fill:#fee187" d="m352.233 211.394-68.984-102.438-68.984 102.438h35.434v265.837h67.099V211.394z"/><path style="fill:#ffc61b" d="M509.524 333.999 440.54 231.562a14.523 14.523 0 0 0-12.048-6.411 14.523 14.523 0 0 0-12.048 6.411l-68.983 102.437a14.525 14.525 0 0 0 12.048 22.638h20.909v106.071h-49.095v-236.79h20.909a14.525 14.525 0 0 0 12.048-22.638l-68.984-102.438c-2.699-4.009-7.216-6.411-12.048-6.411s-9.349 2.402-12.048 6.411L202.217 203.28a14.525 14.525 0 0 0 12.048 22.638h20.909v236.789h-49.095v-62.47h20.909c8.02 0 14.524-6.504 14.524-14.524s-6.504-14.524-14.524-14.524h-35.433c-8.02 0-14.524 6.504-14.524 14.524v76.994h-38.049v-76.994c0-8.02-6.504-14.524-14.524-14.524h-8.142l41.692-61.913 20.131 29.895c4.482 6.654 13.509 8.412 20.161 3.935 6.654-4.481 8.415-13.508 3.935-20.161l-32.178-47.783c-2.699-4.009-7.216-6.411-12.048-6.411s-9.349 2.402-12.048 6.411l-68.983 102.44a14.525 14.525 0 0 0 12.048 22.638h20.909v62.47H29.048V34.767c0-8.02-6.504-14.524-14.524-14.524S0 26.747 0 34.767v442.465c0 8.02 6.504 14.524 14.524 14.524h447.518c8.02 0 14.524-6.504 14.524-14.524s-6.504-14.524-14.524-14.524h-52.576V342.113c0-8.02-6.504-14.524-14.524-14.524H386.8l41.692-61.911 41.693 61.911h-8.142c-8.02 0-14.524 6.504-14.524 14.524v78.011c0 8.02 6.504 14.524 14.524 14.524s14.524-6.504 14.524-14.524v-63.487h20.909a14.525 14.525 0 0 0 12.048-22.638zm-245.3 128.708V211.394c0-8.02-6.504-14.524-14.524-14.524h-8.142l41.692-61.911 41.693 61.911H316.8c-8.02 0-14.524 6.504-14.524 14.524v251.313h-38.052z"/></svg>