<svg xmlns="http://www.w3.org/2000/svg" viewBox="0 0 503.808 503.808" style="enable-background:new 0 0 503.808 503.808" xml:space="preserve"><path style="fill:#ecf4f7" d="M327.704 251.075v179.2c0 18.773-15.36 34.133-34.133 34.133h-153.6V37.741h153.6c18.773 0 34.133 15.36 34.133 34.133v179.201z" transform="translate(1 1)"/><path style="fill:#80d6fa" d="M139.971 37.741v435.2c0 18.773-13.653 29.867-29.867 23.893l-81.067-32.427c-19.627-6.827-25.6-15.36-25.6-34.133v-358.4c0-18.773 6.827-27.307 25.6-34.133l81.067-32.427c16.213-5.973 29.867 5.12 29.867 23.893v8.534z" transform="translate(1 1)"/><path style="fill:#51565f" d="M119.637 503.808c-3.413 0-6.827-.853-10.24-1.707L28.33 469.675c-20.48-7.68-28.16-17.92-28.16-38.4v-358.4c0-20.48 7.68-30.72 28.16-38.4l81.067-32.427c8.533-3.413 17.067-2.56 23.893 2.56 7.68 5.12 11.947 14.507 11.947 25.6v443.733c0 11.093-4.267 20.48-11.947 25.6-3.413 2.56-8.533 4.267-13.653 4.267zm0-494.933c-2.56 0-5.12.853-7.68 1.707L30.891 43.008c-17.92 6.827-23.04 13.653-23.04 29.867v358.4c0 17.067 5.12 23.893 23.04 29.867l81.067 32.427c5.973 2.56 11.947 1.707 16.213-.853 5.12-3.413 7.68-10.24 7.68-18.773V30.208c0-8.533-2.56-15.36-7.68-18.773-1.707-1.707-5.12-2.56-8.534-2.56zm174.934 460.8H175.104c-2.56 0-4.267-1.707-4.267-4.267 0-2.56 1.707-4.267 4.267-4.267h119.467c16.213 0 29.867-13.653 29.867-29.867v-128c0-2.56 1.707-4.267 4.267-4.267s4.267 1.707 4.267 4.267v128c-.001 21.334-17.068 38.401-38.401 38.401zm119.466-128c-.853 0-2.56 0-3.413-.853-1.707-1.707-1.707-4.267 0-5.973l77.653-77.653H192.171c-2.56 0-4.267-1.707-4.267-4.267 0-2.56 1.707-4.267 4.267-4.267h296.96l-77.653-77.653c-1.707-1.707-1.707-4.267 0-5.973 1.707-1.707 4.267-1.707 5.973 0l85.333 85.333s.853.853.853 1.707v3.414c0 .853-.853.853-.853.853l-85.333 85.333c-.854-.855-2.56-.001-3.414-.001zm-307.2-59.734c-2.56 0-4.267-1.707-4.267-4.267v-51.2c0-2.56 1.707-4.267 4.267-4.267s4.267 1.707 4.267 4.267v51.2c0 2.56-1.707 4.267-4.267 4.267zm221.867-76.8c-2.56 0-4.267-1.707-4.267-4.267v-128c0-16.213-13.653-29.867-29.867-29.867H174.25c-2.56 0-4.267-1.707-4.267-4.267 0-2.56 1.707-4.267 4.267-4.267h120.32c21.333 0 38.4 17.067 38.4 38.4v128c.001 2.561-1.706 4.268-4.266 4.268z"/></svg>