<svg width="800" height="800" viewBox="0 0 1024 1024" class="icon" xmlns="http://www.w3.org/2000/svg"><path d="M894.98 760.898a24.4 24.4 0 0 1-2.027 9.813c-7.85 63.516-94.982 114.276-236.663 136.973-46.901 7.589-97.597 10.991-146.79 10.991-48.598 0-97.332-3.141-143.71-10.533C215.275 884.658 125.4 829.78 125.4 761.357c0-.459.13-.914.197-1.44.325-104.725 51.741-184.464 123.171-232.738 11.447-113.491 61.162-422.566 261.322-422.566.067 0 .132.067.132.067.066 0 .13-.067.197-.067 199.836 0 249.68 307.963 261.259 421.977 78.43 52.856 123.301 138.219 123.301 234.308z" fill="#27323A"/><path d="M193.035 669.518c73.852-43.04 197.418-65.673 316.466-65.673 120.36 0 245.3 23.156 318.887 67.113-16.68-41.405-45.133-76.859-84.448-103.287-1.046-.784-1.698-1.832-2.616-2.746-9.55-2.75-16.877-10.992-17.791-21.458-16.746-188.191-81.505-389.269-213.115-389.269-.066 0-.131-.066-.198-.066 0 0-.063.066-.13.066-121.146 0-185.576 170.464-208.079 344.397 37.155-15.436 77.057-23.81 116.698-23.81 13.67 0 24.727 11.053 24.727 24.725 0 13.67-11.055 24.793-24.727 24.793-92.492 0-187.209 52.92-225.674 145.215z" fill="#79CCBF"/><path d="M572.036 805.184c0-34.472-28.063-62.534-62.599-62.534-34.472 0-62.535 28.062-62.535 62.534 0 34.537 28.063 62.599 62.535 62.599 34.537 0 62.599-28.063 62.599-62.599z" fill="#FFF"/><path d="M844.152 761.357c0-45.07-127.293-107.996-334.651-107.996-206.18 0-333.081 62.206-334.454 107.212v.324c0 .198-.132.329-.132.527.067 33.227 68.226 77.448 198.527 97.79 12.824 2.027 26.427 3.598 40.297 5.038-10.664-17.204-17.075-37.352-17.075-59.069 0-62.206 50.566-112.771 112.772-112.771s112.835 50.565 112.835 112.771c0 21.716-6.474 41.865-17.137 59.07 14.39-1.508 28.453-3.142 41.67-5.236 128.47-20.539 197.348-64.822 197.348-97.66z" fill="#F4CE73"/><path d="M501.128 240.869c-38.592 0-82.68 76.796-84.642 130.89-.459 13.671-11.97 24.335-25.641 23.876-13.671-.522-24.335-11.97-23.876-25.64 2.616-71.956 60.05-178.643 134.16-178.643 13.67 0 24.793 11.056 24.793 24.727s-11.123 24.79-24.794 24.79z" fill="#27323A"/></svg>