<svg xmlns="http://www.w3.org/2000/svg" viewBox="0 0 310 310" style="enable-background:new 0 0 310 310" xml:space="preserve"><circle style="fill:#00d7df" cx="57.499" cy="100" r="25"/><circle style="fill:#006c70" cx="207.499" cy="100" r="25"/><circle style="fill:#00d7df" cx="57.499" cy="25" r="25"/><circle style="fill:#00d7df" cx="132.499" cy="25" r="25"/><path style="fill:#006c70" d="M132.499 0c13.807 0 25 11.193 25 25s-11.193 25-25 25"/><circle style="fill:#00d7df" cx="57.499" cy="175" r="25"/><circle style="fill:#006c70" cx="207.499" cy="25" r="25"/><path style="fill:#ffc170" d="M252.499 170a24.894 24.894 0 0 0-15 4.999v-1.667c0-13.807-11.193-25-25-25a24.89 24.89 0 0 0-15.058 5.045c-.837-13.049-11.68-23.377-24.942-23.377a24.894 24.894 0 0 0-15 4.999V100c0-13.807-11.193-25-25-25s-25 11.193-25 25v130c0 20.501 12.343 38.11 29.999 45.827V310h105.001v-32.292c20.285-6.372 35.001-25.32 35.001-47.708v-35c0-13.807-11.193-25-25.001-25z"/><path style="fill:#ffd6a0" d="M132.167 75.008C118.514 75.188 107.5 86.305 107.5 100v130c0 18.365 9.91 34.401 24.667 43.091V75.008z"/></svg>