<svg xmlns="http://www.w3.org/2000/svg" viewBox="0 0 450.409 450.409" style="enable-background:new 0 0 450.409 450.409" xml:space="preserve"><path style="fill:#15ace5" d="m440.409 91.608-44.025 45.809c0 182.439-146.537 266.406-244.902 262.844-98.258-3.564-141.48-40.357-141.48-40.357 74.264 10.012 129.088-35.283 129.088-35.283-67.314-8.637-80.598-61.581-80.598-61.581 17.641 4.764 39.059-2.382 39.059-2.382-75.35-23.394-69.211-87.347-69.211-87.347 6.051 6.642 38.275 11.395 38.275 11.395C.182 135.538 40.344 66.821 40.344 66.821c82.98 94.986 181.84 92.613 181.84 92.613-15.279-47.793 22.008-83.589 22.008-83.589 69.201-59.19 127.897 1.985 127.897 1.985 24.295 0 55.83-22.019 55.83-22.019-2.381 25.784-37.287 50.175-37.287 50.175 12.994 1.396 49.777-14.378 49.777-14.378z"/><path style="fill:#fff" d="M304.969 97.95c12.297 0 22.309 10.013 22.309 22.309 0 12.297-10.012 22.309-22.309 22.309s-22.309-10.012-22.309-22.309c.001-12.296 10.013-22.309 22.309-22.309z"/><path style="fill:#231f20" d="M448.633 85.921a10.002 10.002 0 0 0-12.164-3.504 294.697 294.697 0 0 1-11.962 4.788c7.977-10.449 12.463-20.661 13.369-30.473a9.999 9.999 0 0 0-4.928-9.559 10.01 10.01 0 0 0-10.749.435c-7.513 5.229-29.439 18.214-46.366 20.014-8.979-7.985-34.525-27.579-68.975-27.579-24.017 0-47.288 9.489-69.167 28.202-.146.125-.287.253-.426.386-1.555 1.492-34.812 34.084-27.852 80.054-10.915-1.138-28.271-3.981-48.845-11.082-42.85-14.787-80.766-40.815-112.692-77.361a10 10 0 0 0-16.165 1.533c-.457.783-11.229 19.468-13.115 44.808-1.211 16.261 1.146 37.414 14.884 58.149a10 10 0 0 0-15.095 7.623c-.072.754-1.674 18.722 7.073 39.703 5.277 12.659 15.101 28.122 33.359 40.985a10.054 10.054 0 0 0-7.334 2.861 9.998 9.998 0 0 0-2.691 9.567c.158.629 4.016 15.592 17.022 31.458 9.105 11.107 24.26 24.456 48.027 32.264-17.818 9.891-47.021 22.152-82.28 22.154-6.747 0-13.551-.456-20.224-1.355a9.998 9.998 0 0 0-7.819 17.524c1.873 1.595 47.025 39.089 147.601 42.736 2.111.077 4.27.115 6.418.115 56.159 0 117.094-25.072 163.001-67.069 38.658-35.365 84.645-98.959 85.822-201.832l41.259-42.93a9.995 9.995 0 0 0 1.014-12.615zm-59.459 44.566a10.004 10.004 0 0 0-2.79 6.93c0 97.974-43.148 158.013-79.346 191.126-42.318 38.714-98.206 61.826-149.501 61.826-1.907 0-3.823-.034-5.693-.102-46.07-1.671-79.63-10.936-101.81-19.896 55.901-5.902 93.681-36.602 95.424-38.041a10.001 10.001 0 0 0-5.097-17.629c-38.738-4.97-57.455-25.739-65.913-40.062 13.902-.423 25.741-4.321 26.267-4.496a10 10 0 0 0-.2-19.037c-45.354-14.081-57.863-43.824-61.179-61.918 8.851 2.615 18.754 4.368 25.819 5.41 4.535.677 8.949-1.835 10.701-6.074s.395-9.127-3.293-11.856c-42.509-31.462-36.275-71.533-29.262-91.831 79.114 82.127 167.953 84.604 178.224 84.603.592 0 .898-.008.898-.008a10.025 10.025 0 0 0 7.901-4.209 10.002 10.002 0 0 0 1.386-8.833c-12.777-39.965 16.446-70.378 19.238-73.163 18.075-15.383 36.886-23.183 55.911-23.183 33.634 0 57.794 24.484 58.014 24.711a10.002 10.002 0 0 0 7.216 3.076c10.698 0 22.313-3.552 32.545-7.915-7.118 8.089-15.291 14.758-19.729 17.874a10.002 10.002 0 0 0 4.66 18.141c.893.096 1.85.144 2.842.144 3.45 0 7.683-.649 12.233-1.68l-15.466 16.092z"/><path style="fill:#231f20" d="M304.969 87.95c-17.815 0-32.309 14.494-32.309 32.309s14.493 32.309 32.309 32.309c17.815 0 32.309-14.493 32.309-32.309 0-17.815-14.493-32.309-32.309-32.309zm0 44.618c-6.787 0-12.309-5.521-12.309-12.309 0-6.787 5.521-12.309 12.309-12.309 6.787 0 12.309 5.522 12.309 12.309 0 6.788-5.521 12.309-12.309 12.309z"/></svg>