<svg xmlns="http://www.w3.org/2000/svg" viewBox="0 0 490 490" style="enable-background:new 0 0 490 490" xml:space="preserve"><path style="fill:#ea4640" d="M480 180v130c0 55.195-44.805 100-100 100H110c-55.195 0-100-44.805-100-100V180c0-55.199 44.805-100 100-100h270c55.195 0 100 44.801 100 100z"/><path style="fill:#fff" d="m320 245-120 50V195z"/><path style="fill:#231f20" d="M380 70H110C49.346 70 0 119.346 0 180v130c0 60.654 49.346 110 110 110h270c60.654 0 110-49.346 110-110V180c0-60.654-49.346-110-110-110zm90 240c0 49.626-40.374 90-90 90H110c-49.626 0-90-40.374-90-90V180c0-49.626 40.374-90 90-90h270c49.626 0 90 40.374 90 90v130z"/><path style="fill:#231f20" d="m323.846 235.769-120-50A9.999 9.999 0 0 0 190 195v100a9.998 9.998 0 0 0 10.001 10 10 10 0 0 0 3.845-.769l120-50a10 10 0 0 0 0-18.462zM210 280v-70l84 35-84 35z"/></svg>